<svg height="480pt" viewBox="0 0 480 480" width="480pt" xmlns="http://www.w3.org/2000/svg"><path d="m8 72h464v240h-464zm0 0" fill="#5aaae7"/><path d="m472 72v240h-464c209.953125-26.503906 369.542969-101.734375 464-240zm0 0" fill="#3d9ae2"/><path d="m328 440c8.824219.027344 15.972656 7.175781 16 16-.066406 8.808594-7.191406 15.933594-16 16h-176c-8.824219-.027344-15.972656-7.175781-16-16 .066406-8.808594 7.191406-15.933594 16-16zm0 0" fill="#787680"/><path d="m304 440h-128l8-64h112zm0 0" fill="#898890"/><path d="m472 312v32c-.050781 17.652344-14.347656 31.949219-32 32h-400c-17.652344-.050781-31.949219-14.347656-32-32v-32zm0 0" fill="#c6c5ca"/><path d="m472 40v32h-464v-32c.050781-17.652344 14.347656-31.949219 32-32h400c17.671875 0 32 14.328125 32 32zm0 0" fill="#ff5023"/><path d="m298 392h-116l2-16h112zm0 0" fill="#787680"/><path d="m304 120h48c8.824219.027344 15.972656 7.175781 16 16v176h-48v-176c-.027344-8.824219-7.175781-15.972656-16-16zm0 0" fill="#ffcd00"/><path d="m304 120h-176c-8.824219.027344-15.972656 7.175781-16 16v176h208v-176c-.027344-8.824219-7.175781-15.972656-16-16zm0 0" fill="#ffde55"/><path d="m288 120v48l-16-16-16 16v-48zm0 0" fill="#ff5023"/><path d="m440 0h-400c-22.082031.0273438-39.9726562 17.917969-40 40v304c.0273438 22.082031 17.917969 39.972656 40 40h134.9375l-6 48h-16.9375c-13.253906 0-24 10.746094-24 24s10.746094 24 24 24h176c13.253906 0 24-10.746094 24-24s-10.746094-24-24-24h-16.9375l-6-48h134.9375c22.082031-.027344 39.972656-17.917969 40-40v-304c-.027344-22.082031-17.917969-39.9726562-40-40zm-400 16h400c13.253906 0 24 10.746094 24 24v24h-448v-24c0-13.253906 10.746094-24 24-24zm224 112h16v20.6875l-2.34375-2.34375c-3.125-3.121094-8.1875-3.121094-11.3125 0l-2.34375 2.34375zm-11.0625 47.390625c2.988281 1.238281 6.429688.554687 8.71875-1.734375l10.34375-10.34375 10.34375 10.34375c2.289062 2.285156 5.730469 2.972656 8.71875 1.734375s4.9375-4.15625 4.9375-7.390625v-40h8c4.417969 0 8 3.582031 8 8v168h-192v-168c0-4.417969 3.582031-8 8-8h120v40c0 3.234375 1.949219 6.152344 4.9375 7.390625zm73.589844-47.390625h25.472656c4.417969 0 8 3.582031 8 8v168h-32v-168c-.027344-2.730469-.523438-5.4375-1.472656-8zm25.472656-16h-224c-13.253906 0-24 10.746094-24 24v168h-88v-224h448v224h-88v-168c0-13.253906-10.746094-24-24-24zm-16 344c0 4.417969-3.582031 8-8 8h-176c-4.417969 0-8-3.582031-8-8s3.582031-8 8-8h176c4.417969 0 8 3.582031 8 8zm-41.0625-24h-109.875l6-48h97.875zm145.0625-64h-400c-13.253906 0-24-10.746094-24-24v-24h448v24c0 13.253906-10.746094 24-24 24zm0 0"/><path d="m416 336h16v16h-16zm0 0"/><path d="m48 32h16v16h-16zm0 0"/><path d="m80 32h16v16h-16zm0 0"/><path d="m112 32h16v16h-16zm0 0"/><path d="m136 160h16v16h-16zm0 0"/><path d="m168 160h48v16h-48zm0 0"/><path d="m136 192h80v16h-80zm0 0"/><path d="m136 224h32v16h-32zm0 0"/><path d="m184 224h112v16h-112zm0 0"/><path d="m136 256h160v16h-160zm0 0"/></svg>