<svg height="512" viewBox="0 0 64 64" width="512" xmlns="http://www.w3.org/2000/svg"><g id="Filled_outline" data-name="Filled outline"><path d="m31 34 10-13 2.018 5.025-5.907 7.975z" fill="#6aadab"/><path d="m52 57h-40l-4-8h48z" fill="#4b6c77"/><path d="m8 49 11-29v-8l7 7v30z" fill="#8fc8c8"/><path d="m19 20-10-10 4-4 6 6z" fill="#6aadab"/><path d="m9 10-6 6h12z" fill="#8fc8c8"/><path d="m26 40 5-6h15l10 15h-30z" fill="#738c93"/><path d="m49.207 38.81 11.793-10.81-5 21z" fill="#6aadab"/><path d="m26 49 20-27v27z" fill="#8fc8c8"/><path d="m17.5 28.692h2v7.616h-2z" fill="#4b6c77" transform="matrix(.394 -.919 .919 .394 -18.66 36.702)"/><path d="m17 32.615h2.001v10.77h-2.001z" fill="#4b6c77" transform="matrix(.371 -.928 .928 .371 -23.967 40.6)"/><g fill="#629f9a"><path d="m40 52h10v2h-10z"/><path d="m18 52h4v2h-4z"/><path d="m36 52h2v2h-2z"/></g><path d="m41 37h2v2h-2z" fill="#6aadab"/><path d="m37 40h2v2h-2z" fill="#6aadab"/><path d="m3 17h11.586l3.25 3.25-10.771 28.396c0 .01-.027.1-.035.141a1.043 1.043 0 0 0 -.023.134 1.879 1.879 0 0 0 .011.244.964.964 0 0 0 .026.106c.013.044.054.161.061.176l4 8a1 1 0 0 0 .895.553h40a1 1 0 0 0 .9-.553l4-8a1.87 1.87 0 0 0 .078-.216v-.014l5-20.986a1 1 0 0 0 -1.649-.968l-10.937 10.022-2.392-3.585v-11.7a1 1 0 0 0 -1.8-.595l-1.917 2.588-1.351-3.366a1 1 0 0 0 -1.72-.237l-13.212 16.848v-18.238a1 1 0 0 0 -.293-.707l-13-13a1 1 0 0 0 -1.414 0l-10 10a1 1 0 0 0 .707 1.707zm48.382 39h-38.764l-3-6h44.764zm7.89-25.059-3.713 15.594-5.045-7.566zm-5.141 17.059h-7.131v-10.7zm-9.131 0h-17.015l17.015-22.97zm-4.275-25 1.157 2.881-5.275 7.119h-3.576zm-9.257 12h3.658l-8.126 10.97v-5.608zm-6.468 13h-15.551l4.065-10.717 9.114 3.646.744-1.858-9.148-3.659 1.193-3.146 6.189 2.653.788-1.838-6.267-2.681 3.808-10.041a1.868 1.868 0 0 0 .065-.359v-5.586l5 5zm-12-40.586 5 5v5.172l-7.586-7.586zm-4 4 3.586 3.586h-7.172z"/><path d="m40 52h10v2h-10z"/><path d="m18 52h4v2h-4z"/><path d="m36 52h2v2h-2z"/><path d="m41 37h2v2h-2z"/><path d="m37 40h2v2h-2z"/></g></svg>