<?xml version="1.0" ?><svg id="Layer_1" style="enable-background:new 0 0 70 70;" version="1.1" viewBox="0 0 70 70" xml:space="preserve" xmlns="http://www.w3.org/2000/svg" xmlns:xlink="http://www.w3.org/1999/xlink"><style type="text/css">
	.st0{fill:#D7D2D1;}
	.st1{fill:#5EA3D7;}
</style><g><path class="st0" d="M60.6388092,63.6338959H3.0016022c-0.5522461,0-1,0.4477539-1,1s0.4477539,1,1,1h57.637207   c0.5522461,0,1-0.4477539,1-1S61.1910553,63.6338959,60.6388092,63.6338959z"/><path class="st0" d="M3.0016022,48.9546967h16.1157227c0.5522461,0,1-0.4477539,1-1s-0.4477539-1-1-1H3.0016022   c-0.5522461,0-1,0.4477539-1,1S2.4493561,48.9546967,3.0016022,48.9546967z"/><path class="st0" d="M3.0016022,57.2945404H47.509903c0.5522461,0,1-0.4477539,1-1s-0.4477539-1-1-1H3.0016022   c-0.5522461,0-1,0.4477539-1,1S2.4493561,57.2945404,3.0016022,57.2945404z"/><path class="st0" d="M24.655899,48.9546967c0.1191406,0,0.2387695-0.0209961,0.3540039-0.0649414l11.671936-4.4190063   l-8.7404785-8.7470703l-4.2278442,11.8960571c-0.1303711,0.3671875-0.0356445,0.7768555,0.2426758,1.0493164   C24.1466217,48.8555756,24.3990631,48.9546967,24.655899,48.9546967z"/><polygon class="st1" points="44.3858795,13.78862 62.575882,23.9886322 57.3558502,29.2086029 39.1658478,19.0086517  "/><path class="st1" d="M31.0058746,27.1686249l18.1900024,10.2000122l-7.6900024,7.6900024   c-0.1799927,0.1799927-0.4400024,0.289978-0.7000122,0.289978c-0.2699585,0-0.5199585-0.1099854-0.7099609-0.289978   L27.3158722,32.2686005c-0.4000244-0.3899536-0.4000244-1.0199585,0-1.4099731L31.0058746,27.1686249z"/><polygon class="st1" points="37.6958771,20.4786224 55.8858795,30.6786346 50.6658478,35.8986053 32.4759064,25.6986542  "/><path class="st1" d="M67.7058868,18.8586273l-3.6699829,3.6699829L45.8558502,12.3186493l7.6600342-7.6600342   c0.3900146-0.3900146,1.0200195-0.3900146,1.4099731,0l12.7800293,12.7800293   C68.0959015,17.828598,68.0959015,18.4586029,67.7058868,18.8586273z"/></g></svg>