<svg height="512" viewBox="0 0 64 64" width="512" xmlns="http://www.w3.org/2000/svg"><g id="Filled_outline" data-name="Filled outline"><path d="m15 3h34a4 4 0 0 1 4 4v44a4 4 0 0 1 -4 4h-34a0 0 0 0 1 0 0v-52a0 0 0 0 1 0 0z" fill="#d3843d"/><path d="m26 61-4-2-4 2v-6h8z" fill="#e1462b"/><path d="m38 3h6v52h-6z" fill="#e0a23d"/><path d="m22 13h4v22h-4z" fill="#195c85"/><path d="m22 9h4v4h-4z" fill="#09364c"/><path d="m22 35h4v4h-4z" fill="#09364c"/><path d="m24 47a1 1 0 0 1 -1-1v-3a1 1 0 0 1 2 0v3a1 1 0 0 1 -1 1z" fill="#09364c"/><path d="m22 39 1 4h2l1-4z" fill="#fcf05a"/><path d="m31 23h-2v-9h-3v-2h4a1 1 0 0 1 1 1z" fill="#fcf05a"/><path d="m11 3h4v52h-4z" fill="#9b5f2f"/><g fill="#ffd782"><path d="m44 3h5a4 4 0 0 1 4 4v5a0 0 0 0 1 0 0h-9a0 0 0 0 1 0 0v-9a0 0 0 0 1 0 0z"/><path d="m44 46h9a0 0 0 0 1 0 0v5a4 4 0 0 1 -4 4h-5a0 0 0 0 1 0 0v-9a0 0 0 0 1 0 0z"/><path d="m18 25h4v2h-4z"/><path d="m26 25h9v2h-9z"/><path d="m18 29h4v2h-4z"/><path d="m26 29h9v2h-9z"/><path d="m18 33h4v2h-4z"/><path d="m26 33h9v2h-9z"/><path d="m18 37h4v2h-4z"/><path d="m26 37h9v2h-9z"/></g><path d="m47 7h2v2h-2z" fill="#9b5f2f"/><path d="m47 50h2v2h-2z" fill="#9b5f2f"/><path d="m24 52h-6v-6h2v4h4z" fill="#ffd782"/><path d="m29 6h2v2h-2z" fill="#ffd782"/><path d="m33 9h2v2h-2z" fill="#ffd782"/><path d="m49 56a5.006 5.006 0 0 0 5-5v-44a5.006 5.006 0 0 0 -5-5h-38a1 1 0 0 0 -1 1v52a1 1 0 0 0 1 1h6v5a1 1 0 0 0 1.447.9l3.553-1.782 3.553 1.782a1 1 0 0 0 1.447-.9v-5zm-4-52h4a3 3 0 0 1 3 3v4h-7zm0 9h7v32h-7zm0 34h7v4a3 3 0 0 1 -3 3h-4zm-6-43h4v50h-4zm-25 50h-2v-50h2zm11 5.382-2.553-1.277a1 1 0 0 0 -.894 0l-2.553 1.277v-3.382h6zm12-5.382h-21v-50h21z"/><path d="m21.03 39.242 1 4a1 1 0 0 0 .97.758v2a1 1 0 0 0 2 0v-2a1 1 0 0 0 .97-.758l1-4a2 2 0 0 0 .03-.242h8v-2h-8v-2h8v-2h-8v-2h8v-2h-8v-2h8v-2h-8v-11h2v9h2v-10a1 1 0 0 0 -1-1h-3v-3a1 1 0 0 0 -1-1h-4a1 1 0 0 0 -1 1v16h-3v2h3v2h-3v2h3v2h-3v2h3v2h-3v2h3a2 2 0 0 0 .03.242zm3.189 2.758h-.438l-.5-2h1.438zm-1.219-32h2v2h-2zm0 4h2v20h-2zm0 22h2v2h-2z"/><path d="m47 7h2v2h-2z"/><path d="m47 50h2v2h-2z"/><path d="m24 50h-4v-4h-2v6h6z"/><path d="m29 6h2v2h-2z"/><path d="m33 9h2v2h-2z"/></g></svg>