<?xml version="1.0" encoding="iso-8859-1"?>
<!-- Generator: Adobe Illustrator 19.0.0, SVG Export Plug-In . SVG Version: 6.00 Build 0)  -->
<svg version="1.1" id="Layer_1" xmlns="http://www.w3.org/2000/svg" xmlns:xlink="http://www.w3.org/1999/xlink" x="0px" y="0px"
	 viewBox="0 0 460 460" style="enable-background:new 0 0 460 460;" xml:space="preserve">
<rect x="4.067" style="fill:#EDEEF0;" width="352.829" height="460"/>
<rect x="4.067" style="fill:#ABCB57;" width="352.829" height="84.933"/>
<rect x="4.067" y="66.008" style="opacity:0.4;fill:#5B5B5F;enable-background:new    ;" width="352.829" height="18.925"/>
<rect x="4.067" y="120.842" style="fill:#B9BBBC;" width="352.829" height="5"/>
<rect x="4.067" y="154.175" style="fill:#B9BBBC;" width="352.829" height="5"/>
<rect x="4.067" y="187.507" style="fill:#B9BBBC;" width="352.829" height="5"/>
<rect x="4.067" y="220.839" style="fill:#B9BBBC;" width="352.829" height="5"/>
<rect x="4.067" y="254.171" style="fill:#B9BBBC;" width="352.829" height="5"/>
<rect x="4.067" y="287.503" style="fill:#B9BBBC;" width="352.829" height="5"/>
<rect x="4.067" y="320.835" style="fill:#B9BBBC;" width="352.829" height="5"/>
<rect x="4.067" y="354.168" style="fill:#B9BBBC;" width="352.829" height="5"/>
<rect x="4.067" y="387.5" style="fill:#B9BBBC;" width="352.829" height="5"/>
<rect x="4.067" y="430" style="opacity:0.3;fill:#5B5B5F;enable-background:new    ;" width="352.829" height="30"/>
<rect x="55.481" y="84.933" style="fill:#C8523B;" width="10" height="345.067"/>
<rect x="401.758" y="39.265" style="fill:#C8523B;" width="54.174" height="318.53"/>
<polygon style="fill:#E0D492;" points="401.759,357.795 428.846,420.735 455.932,357.795 "/>
<polygon style="fill:#C8523B;" points="428.846,420.735 415.481,389.68 442.211,389.68 "/>
<polygon style="opacity:0.3;fill:#5B5B5F;enable-background:new    ;" points="455.932,357.795 428.846,420.735 428.846,39.265 
	455.933,39.265 "/>
<g>
</g>
<g>
</g>
<g>
</g>
<g>
</g>
<g>
</g>
<g>
</g>
<g>
</g>
<g>
</g>
<g>
</g>
<g>
</g>
<g>
</g>
<g>
</g>
<g>
</g>
<g>
</g>
<g>
</g>
</svg>
